<svg width="27" height="21" viewBox="0 0 27 21" fill="none" xmlns="http://www.w3.org/2000/svg">
<path fill-rule="evenodd" clip-rule="evenodd" d="M18.9158 5.4H21.2204C21.8243 5.4 22.4036 5.63792 22.8309 6.06146C23.2581 6.48501 23.4984 7.05954 23.4989 7.65877V17.7753C23.4984 18.3747 23.2582 18.9494 22.831 19.3732C22.4038 19.797 21.8245 20.0354 21.2204 20.0359H2.7785C2.17435 20.0354 1.59509 19.797 1.1679 19.3732C0.740706 18.9494 0.500493 18.3747 0.5 17.7753V7.65877C0.500493 7.05954 0.740766 6.48501 1.16801 6.06146C1.59526 5.63792 2.17452 5.4 2.7785 5.4H5.08489L6.62869 2.2905C6.67696 2.19274 6.75184 2.11033 6.84487 2.0526C6.9379 1.99488 7.04535 1.96414 7.15507 1.96387H16.8438C16.9534 1.96376 17.0608 1.99413 17.1538 2.05154C17.2469 2.10895 17.3218 2.1911 17.3702 2.28866L18.9158 5.4ZM12 16.9639C14.4853 16.9639 16.5 14.9491 16.5 12.4639C16.5 9.97859 14.4853 7.96387 12 7.96387C9.51472 7.96387 7.5 9.97859 7.5 12.4639C7.5 14.9491 9.51472 16.9639 12 16.9639Z" fill="#CCD1D7"/>
<mask id="path-2-outside-1_725_10686" maskUnits="userSpaceOnUse" x="15.5" y="-0.0361328" width="12" height="12" fill="black">
<rect fill="white" x="15.5" y="-0.0361328" width="12" height="12"/>
<path fill-rule="evenodd" clip-rule="evenodd" d="M21.5 1.96387C21.0858 1.96387 20.75 2.29965 20.75 2.71387V5.21387H18.25C17.8358 5.21387 17.5 5.54965 17.5 5.96387C17.5 6.37808 17.8358 6.71387 18.25 6.71387H20.75V9.21387C20.75 9.62808 21.0858 9.96387 21.5 9.96387C21.9142 9.96387 22.25 9.62808 22.25 9.21387V6.71387H24.75C25.1642 6.71387 25.5 6.37808 25.5 5.96387C25.5 5.54965 25.1642 5.21387 24.75 5.21387H22.25V2.71387C22.25 2.29965 21.9142 1.96387 21.5 1.96387Z"/>
</mask>
<path fill-rule="evenodd" clip-rule="evenodd" d="M21.5 1.96387C21.0858 1.96387 20.75 2.29965 20.75 2.71387V5.21387H18.25C17.8358 5.21387 17.5 5.54965 17.5 5.96387C17.5 6.37808 17.8358 6.71387 18.25 6.71387H20.75V9.21387C20.75 9.62808 21.0858 9.96387 21.5 9.96387C21.9142 9.96387 22.25 9.62808 22.25 9.21387V6.71387H24.75C25.1642 6.71387 25.5 6.37808 25.5 5.96387C25.5 5.54965 25.1642 5.21387 24.75 5.21387H22.25V2.71387C22.25 2.29965 21.9142 1.96387 21.5 1.96387Z" fill="#CCD1D7"/>
<path d="M20.75 5.21387V6.71387H22.25V5.21387H20.75ZM20.75 6.71387H22.25V5.21387H20.75V6.71387ZM22.25 6.71387V5.21387H20.75V6.71387H22.25ZM22.25 5.21387H20.75V6.71387H22.25V5.21387ZM22.25 2.71387C22.25 3.12808 21.9142 3.46387 21.5 3.46387V0.463867C20.2574 0.463867 19.25 1.47123 19.25 2.71387H22.25ZM22.25 5.21387V2.71387H19.25V5.21387H22.25ZM18.25 6.71387H20.75V3.71387H18.25V6.71387ZM19 5.96387C19 6.37808 18.6642 6.71387 18.25 6.71387V3.71387C17.0074 3.71387 16 4.72123 16 5.96387H19ZM18.25 5.21387C18.6642 5.21387 19 5.54965 19 5.96387H16C16 7.20651 17.0074 8.21387 18.25 8.21387V5.21387ZM20.75 5.21387H18.25V8.21387H20.75V5.21387ZM22.25 9.21387V6.71387H19.25V9.21387H22.25ZM21.5 8.46387C21.9142 8.46387 22.25 8.79965 22.25 9.21387H19.25C19.25 10.4565 20.2574 11.4639 21.5 11.4639V8.46387ZM20.75 9.21387C20.75 8.79965 21.0858 8.46387 21.5 8.46387V11.4639C22.7426 11.4639 23.75 10.4565 23.75 9.21387H20.75ZM20.75 6.71387V9.21387H23.75V6.71387H20.75ZM24.75 5.21387H22.25V8.21387H24.75V5.21387ZM24 5.96387C24 5.54965 24.3358 5.21387 24.75 5.21387V8.21387C25.9926 8.21387 27 7.20651 27 5.96387H24ZM24.75 6.71387C24.3358 6.71387 24 6.37808 24 5.96387H27C27 4.72123 25.9926 3.71387 24.75 3.71387V6.71387ZM22.25 6.71387H24.75V3.71387H22.25V6.71387ZM20.75 2.71387V5.21387H23.75V2.71387H20.75ZM21.5 3.46387C21.0858 3.46387 20.75 3.12808 20.75 2.71387H23.75C23.75 1.47123 22.7426 0.463867 21.5 0.463867V3.46387Z" fill="white" mask="url(#path-2-outside-1_725_10686)"/>
</svg>
